<svg id="Layer_2" data-name="Layer 2" xmlns="http://www.w3.org/2000/svg" width="171.902" height="90.769" viewBox="0 0 171.902 90.769">
  <g id="Layer_1" data-name="Layer 1">
    <path id="Path_9" data-name="Path 9" d="M8.456,146.71v2.285H0V146.71c.44-.162,1.092-.379,1.971-.657V133.578L0,132.79v-2.178l6.065-.131h7.329v4.989H10.953l-.657-1.89H6.065v4.645h5.413v2.891H6.065v4.938Z" transform="translate(0 -64.529)" fill="#e7af19"/>
    <path id="Path_10" data-name="Path 10" d="M43.7,152.769l-5.2.187-.475-1.708c-.157.142-.369.318-.632.536a8.35,8.35,0,0,1-1.516.884,4.857,4.857,0,0,1-2.118.551,4.044,4.044,0,0,1-2.992-1.077,4.124,4.124,0,0,1-1.077-3.033q0-4.337,6.3-4.332h1.84V143.3a1.766,1.766,0,0,0-2.022-1.971,6.515,6.515,0,0,0-1.183.106,5.724,5.724,0,0,0-.869.212l-.263.076-.394,1.708h-2.35l-.187-3.887a18.327,18.327,0,0,1,5.7-1.051q2.992,0,4.226,1.168t1.238,4.044v6.485l1.966.475ZM33.484,148.7a1.383,1.383,0,0,0,1.552,1.577,2.73,2.73,0,0,0,1.324-.384,4.756,4.756,0,0,0,1.092-.773l.394-.369v-1.759H36.329a4.392,4.392,0,0,0-2.194.409A1.4,1.4,0,0,0,33.484,148.7Z" transform="translate(-14.681 -68.491)" fill="#e7af19"/>
    <path id="Path_11" data-name="Path 11" d="M63.026,148.362l.207,1.84a7.5,7.5,0,0,0,2.153.263c1.385,0,2.077-.47,2.077-1.42a1.233,1.233,0,0,0-.713-1.036,7.683,7.683,0,0,0-1.729-.748,20.479,20.479,0,0,1-2.052-.748,4.392,4.392,0,0,1-1.734-1.324A3.422,3.422,0,0,1,60.529,143a3.857,3.857,0,0,1,1.552-3.4,6.53,6.53,0,0,1,3.857-1.092,14.321,14.321,0,0,1,2.275.2c.814.131,1.456.258,1.931.379l.682.212q-.056,1.309-.106,3.937h-2.31l-.394-1.7a4.852,4.852,0,0,0-1.734-.263,2.108,2.108,0,0,0-1.289.354,1.157,1.157,0,0,0-.47.986,1.193,1.193,0,0,0,.723,1.011,8.309,8.309,0,0,0,1.734.738c.672.207,1.35.45,2.022.723a4.261,4.261,0,0,1,1.749,1.274,3.2,3.2,0,0,1,.723,2.123,4.135,4.135,0,0,1-1.607,3.5,7.117,7.117,0,0,1-4.4,1.248,19.633,19.633,0,0,1-2.315-.147c-.8-.1-1.425-.187-1.86-.273l-.657-.162v-4.286Z" transform="translate(-29.934 -68.501)" fill="#e7af19"/>
    <path id="Path_12" data-name="Path 12" d="M91.227,149.643a3.17,3.17,0,0,1-3-1.405,10.475,10.475,0,0,1-.814-4.9v-4.913H85v-2.5l2.441-.339v-3.624l3.862-.708v4.332h3.68v2.836h-3.7v5.934a4.14,4.14,0,0,0,.288,1.84,1.147,1.147,0,0,0,1.1.505,4.448,4.448,0,0,0,2.077-.607l.945,1.89a7.794,7.794,0,0,1-4.463,1.653Z" transform="translate(-42.037 -64.915)" fill="#e7af19"/>
    <path id="Path_13" data-name="Path 13" d="M121.68,148.994V146.71l1.971-.657V133.578l-1.971-.789v-2.178l6.065-.131h2.492a8.063,8.063,0,0,1,6.171,2.31q2.173,2.31,2.178,6.7a9.841,9.841,0,0,1-2.36,6.96,8.219,8.219,0,0,1-6.384,2.527Zm6.065-15.416v12.328h2.184a3.7,3.7,0,0,0,3.149-1.461c.738-.97,1.1-2.583,1.1-4.842a8,8,0,0,0-1.036-4.625,3.538,3.538,0,0,0-3.033-1.415Z" transform="translate(-60.177 -64.529)" fill="#ab351c"/>
    <path id="Path_14" data-name="Path 14" d="M171.573,146.673l-8.719.076a3.9,3.9,0,0,0,.955,2.527,2.906,2.906,0,0,0,2.194.895,7.879,7.879,0,0,0,2.077-.3,9.1,9.1,0,0,0,1.7-.617l.632-.313,1.132,2.1c-.2.157-.465.359-.814.607a12.167,12.167,0,0,1-2.1.986,8.451,8.451,0,0,1-3.073.617,6.638,6.638,0,0,1-5.08-1.855,7.368,7.368,0,0,1-1.749-5.236,7.988,7.988,0,0,1,1.865-5.56,6.563,6.563,0,0,1,5.145-2.062,5.782,5.782,0,0,1,4.438,1.653,6.368,6.368,0,0,1,1.552,4.519Zm-6.1-5.054a2.244,2.244,0,0,0-1.744.733,3.538,3.538,0,0,0-.824,1.976h4.731c-.005-1.825-.728-2.724-2.163-2.724Z" transform="translate(-78.501 -68.511)" fill="#ab351c"/>
    <path id="Path_15" data-name="Path 15" d="M187.15,127.052l6.065-.212v17.595l2.5.657v2.1H187.15v-2.077l2.1-.657V129.7l-2.1-.505Z" transform="translate(-92.556 -62.729)" fill="#ab351c"/>
    <path id="Path_16" data-name="Path 16" d="M206.27,132.7l5.964-.212v11.423l1.835.657v2.1h-7.8V144.6l2.1-.657v-8.593l-2.1-.505Zm1.6-4.549a2.275,2.275,0,0,1,.672-1.724,2.229,2.229,0,0,1,1.587-.642q2.2,0,2.2,2.365a2.31,2.31,0,0,1-.667,1.744,2.158,2.158,0,0,1-1.516.642,2.189,2.189,0,0,1-1.668-.617,2.451,2.451,0,0,1-.612-1.764Z" transform="translate(-102.012 -62.21)" fill="#ab351c"/>
    <path id="Path_17" data-name="Path 17" d="M231.1,149.29l2.315-7.668-1.516-.339v-2.1l6.884-.131v2.234l-1.516.339-4.226,11.625H228.7l-4.15-11.529-1.264-.42v-2.1l6.884-.131V141.3l-1.471.253Z" transform="translate(-110.429 -68.768)" fill="#ab351c"/>
    <path id="Path_18" data-name="Path 18" d="M268.838,146.668l-8.719.076a3.882,3.882,0,0,0,.96,2.527,2.891,2.891,0,0,0,2.194.895,7.815,7.815,0,0,0,2.072-.3,9.184,9.184,0,0,0,1.708-.617l.632-.313,1.127,2.1c-.192.157-.465.359-.814.607a11.972,11.972,0,0,1-2.1.986,8.429,8.429,0,0,1-3.073.617,6.638,6.638,0,0,1-5.08-1.855A7.359,7.359,0,0,1,256,146.142a7.988,7.988,0,0,1,1.865-5.56,6.57,6.57,0,0,1,5.15-2.062,5.782,5.782,0,0,1,4.438,1.653A6.35,6.35,0,0,1,269,144.691Zm-6.065-5.054a2.259,2.259,0,0,0-1.749.733,3.483,3.483,0,0,0-.824,1.971h4.726q-.025-2.724-2.178-2.719Z" transform="translate(-126.606 -68.506)" fill="#ab351c"/>
    <path id="Path_19" data-name="Path 19" d="M284.94,139.005l5.434-.212.238,1.809q.212-.238.576-.576a9.2,9.2,0,0,1,1.329-.92,3.442,3.442,0,0,1,1.744-.576,6.478,6.478,0,0,1,1.223.116,4.166,4.166,0,0,1,.879.253l.263.106-.212,4.989h-2.285l-.394-2.234a2.967,2.967,0,0,0-1.39.369,4.293,4.293,0,0,0-1.077.733l-.369.369v6.985l2.5.657v2.1H284.94V150.9l2.1-.657v-8.593l-2.1-.505Z" transform="translate(-140.918 -68.511)" fill="#ab351c"/>
    <path id="Path_20" data-name="Path 20" d="M315.165,153.258,310.49,141.7l-1.39-.419v-2.1l7.011-.131v2.234l-1.471.263,2.335,7.349,2.234-7.273-1.516-.339v-2.1l7.076-.131v2.234l-1.628.339-3.862,10.766q-.576,1.557-1.087,2.613a14.085,14.085,0,0,1-1.355,2.209,5.6,5.6,0,0,1-2.022,1.734,5.914,5.914,0,0,1-2.679.591l-2.527-.212.369-2.81h1.708a2.79,2.79,0,0,0,1.35-.329,2.967,2.967,0,0,0,1.051-.945,10.422,10.422,0,0,0,.642-1.011C314.832,153.966,314.988,153.642,315.165,153.258Z" transform="translate(-152.867 -68.768)" fill="#ab351c"/>
    <path id="Path_21" data-name="Path 21" d="M175.72,92.119c0-2.527,5.474-4.549,9-4.549s6.389,2.022,6.389,4.549-2.861,4.549-6.389,4.549S175.72,94.641,175.72,92.119Z" transform="translate(-86.903 -43.308)" fill="#ab351c"/>
    <rect id="Rectangle_15" data-name="Rectangle 15" width="1.754" height="10.71" rx="0.81" transform="translate(113.958 20.43) rotate(90)" fill="#e7af19"/>
    <rect id="Rectangle_16" data-name="Rectangle 16" width="1.754" height="10.71" rx="0.81" transform="translate(113.958 24.352) rotate(90)" fill="#e7af19"/>
    <rect id="Rectangle_17" data-name="Rectangle 17" width="1.754" height="10.71" rx="0.81" transform="translate(113.963 28.275) rotate(90)" fill="#e7af19"/>
    <path id="Path_22" data-name="Path 22" d="M0,0H9.6V3.336A2.254,2.254,0,0,1,7.349,5.59H2.254A2.254,2.254,0,0,1,0,3.336Z" transform="translate(104.562 20.43) rotate(90)" fill="#e7af19"/>
    <path id="Path_23" data-name="Path 23" d="M154.83,51.869V0h28.34V6.121H161.694V22.184h18.13V28.3h-18.13V51.869Z" transform="translate(-76.572)" fill="#e7af19"/>
    <path id="Path_24" data-name="Path 24" d="M223.074,13.318a21.123,21.123,0,0,0-6.065-8.86A17.215,17.215,0,0,0,209.5.743,41.553,41.553,0,0,0,200.466,0V6.121q5.9,0,8.593,1.061a13.341,13.341,0,0,1,6.409,5.853q2.638,4.367,2.633,12.51a32.394,32.394,0,0,1-1.35,10A16.351,16.351,0,0,1,213,42.114a11.4,11.4,0,0,1-4.594,2.694,26.336,26.336,0,0,1-7.946.95H182.77v6.121h18.474a34.34,34.34,0,0,0,8.224-.885,18.914,18.914,0,0,0,6.116-2.6,18.832,18.832,0,0,0,4.66-4.706,25.6,25.6,0,0,0,3.493-7.582,36.775,36.775,0,0,0,1.36-10.473,35.219,35.219,0,0,0-2.022-12.318Z" transform="translate(-90.39)" fill="#ab351c"/>
    <rect id="Rectangle_18" data-name="Rectangle 18" width="11.59" height="7.334" rx="3.667" transform="translate(63.418)" fill="#ab351c"/>
    <rect id="Rectangle_19" data-name="Rectangle 19" width="32.743" height="7.334" rx="3.667" transform="translate(42.265 10.842)" fill="#ab351c"/>
    <rect id="Rectangle_20" data-name="Rectangle 20" width="37.817" height="7.334" rx="3.667" transform="translate(37.191 32.52)" fill="#ab351c"/>
    <rect id="Rectangle_21" data-name="Rectangle 21" width="23.175" height="7.334" rx="3.667" transform="translate(51.833 21.679)" fill="#ab351c"/>
    <rect id="Rectangle_22" data-name="Rectangle 22" width="16.371" height="7.334" rx="3.667" transform="translate(58.637 44.373)" fill="#ab351c"/>
  </g>
</svg>
